<?xml version="1.0" encoding="UTF-8"?>
<svg xmlns="http://www.w3.org/2000/svg" viewBox="0 0 800 248" width="800" height="248" role="img">
<title>whereToken public coding-agent usage preview</title>
<desc>Public snapshot of local coding-agent token usage as of 2026-09-14. No prompts, paths, or identifiers.</desc>
<metadata id="wheretoken-snapshot-id">sha256:8de0b5bdeeffe5aa8d4feb44a268886e650b319f9ba9d77c46d19c8d1451874f</metadata>
<rect x="0.5" y="0.5" width="799" height="247" rx="12" fill="#F8FAFC" stroke="#E2E8F0" stroke-width="1"/>
<text x="20.0" y="28.0" fill="#0F172A" font-family="-apple-system, BlinkMacSystemFont, 'Segoe UI', Helvetica, Arial, sans-serif" font-size="13.0" font-weight="600" text-anchor="start">whereToken</text>
<text x="112.0" y="28.0" fill="#64748B" font-family="-apple-system, BlinkMacSystemFont, 'Segoe UI', Helvetica, Arial, sans-serif" font-size="12.0" font-weight="400" text-anchor="start">AI coding profile</text>
<text x="780.0" y="28.0" fill="#64748B" font-family="-apple-system, BlinkMacSystemFont, 'Segoe UI', Helvetica, Arial, sans-serif" font-size="11.0" font-weight="400" text-anchor="end">updated 2026-09-14</text>
<text x="20.0" y="64.0" fill="#4F46E5" font-family="-apple-system, BlinkMacSystemFont, 'Segoe UI', Helvetica, Arial, sans-serif" font-size="28.0" font-weight="700" text-anchor="start">10.48B</text>
<text x="20.0" y="82.0" fill="#64748B" font-family="-apple-system, BlinkMacSystemFont, 'Segoe UI', Helvetica, Arial, sans-serif" font-size="11.0" font-weight="400" text-anchor="start">tokens tracked</text>
<text x="420.0" y="58.0" fill="#0F172A" font-family="-apple-system, BlinkMacSystemFont, 'Segoe UI', Helvetica, Arial, sans-serif" font-size="12.0" font-weight="600" text-anchor="start">24 day streak</text>
<text x="420.0" y="76.0" fill="#0F172A" font-family="-apple-system, BlinkMacSystemFont, 'Segoe UI', Helvetica, Arial, sans-serif" font-size="12.0" font-weight="600" text-anchor="start">160 active days · 53w</text>
<text x="420.0" y="94.0" fill="#64748B" font-family="-apple-system, BlinkMacSystemFont, 'Segoe UI', Helvetica, Arial, sans-serif" font-size="12.0" font-weight="400" text-anchor="start">top Cursor</text>
<rect x="20.0" y="112.0" width="9.0" height="9.0" rx="1.5" fill="#EEF2F6"/>
<rect x="20.0" y="123.0" width="9.0" height="9.0" rx="1.5" fill="#EEF2F6"/>
<rect x="20.0" y="134.0" width="9.0" height="9.0" rx="1.5" fill="#EEF2F6"/>
<rect x="20.0" y="145.0" width="9.0" height="9.0" rx="1.5" fill="#EEF2F6"/>
<rect x="20.0" y="156.0" width="9.0" height="9.0" rx="1.5" fill="#EEF2F6"/>
<rect x="20.0" y="167.0" width="9.0" height="9.0" rx="1.5" fill="#EEF2F6"/>
<rect x="20.0" y="178.0" width="9.0" height="9.0" rx="1.5" fill="#EEF2F6"/>
<rect x="31.0" y="112.0" width="9.0" height="9.0" rx="1.5" fill="#EEF2F6"/>
<rect x="31.0" y="123.0" width="9.0" height="9.0" rx="1.5" fill="#A5B4FC"/>
<rect x="31.0" y="134.0" width="9.0" height="9.0" rx="1.5" fill="#EEF2F6"/>
<rect x="31.0" y="145.0" width="9.0" height="9.0" rx="1.5" fill="#EEF2F6"/>
<rect x="31.0" y="156.0" width="9.0" height="9.0" rx="1.5" fill="#EEF2F6"/>
<rect x="31.0" y="167.0" width="9.0" height="9.0" rx="1.5" fill="#A5B4FC"/>
<rect x="31.0" y="178.0" width="9.0" height="9.0" rx="1.5" fill="#EEF2F6"/>
<rect x="42.0" y="112.0" width="9.0" height="9.0" rx="1.5" fill="#A5B4FC"/>
<rect x="42.0" y="123.0" width="9.0" height="9.0" rx="1.5" fill="#EEF2F6"/>
<rect x="42.0" y="134.0" width="9.0" height="9.0" rx="1.5" fill="#EEF2F6"/>
<rect x="42.0" y="145.0" width="9.0" height="9.0" rx="1.5" fill="#EEF2F6"/>
<rect x="42.0" y="156.0" width="9.0" height="9.0" rx="1.5" fill="#EEF2F6"/>
<rect x="42.0" y="167.0" width="9.0" height="9.0" rx="1.5" fill="#E0E7FF"/>
<rect x="42.0" y="178.0" width="9.0" height="9.0" rx="1.5" fill="#C7D2FE"/>
<rect x="53.0" y="112.0" width="9.0" height="9.0" rx="1.5" fill="#EEF2F6"/>
<rect x="53.0" y="123.0" width="9.0" height="9.0" rx="1.5" fill="#A5B4FC"/>
<rect x="53.0" y="134.0" width="9.0" height="9.0" rx="1.5" fill="#EEF2F6"/>
<rect x="53.0" y="145.0" width="9.0" height="9.0" rx="1.5" fill="#EEF2F6"/>
<rect x="53.0" y="156.0" width="9.0" height="9.0" rx="1.5" fill="#C7D2FE"/>
<rect x="53.0" y="167.0" width="9.0" height="9.0" rx="1.5" fill="#EEF2F6"/>
<rect x="53.0" y="178.0" width="9.0" height="9.0" rx="1.5" fill="#EEF2F6"/>
<rect x="64.0" y="112.0" width="9.0" height="9.0" rx="1.5" fill="#EEF2F6"/>
<rect x="64.0" y="123.0" width="9.0" height="9.0" rx="1.5" fill="#C7D2FE"/>
<rect x="64.0" y="134.0" width="9.0" height="9.0" rx="1.5" fill="#C7D2FE"/>
<rect x="64.0" y="145.0" width="9.0" height="9.0" rx="1.5" fill="#E0E7FF"/>
<rect x="64.0" y="156.0" width="9.0" height="9.0" rx="1.5" fill="#C7D2FE"/>
<rect x="64.0" y="167.0" width="9.0" height="9.0" rx="1.5" fill="#EEF2F6"/>
<rect x="64.0" y="178.0" width="9.0" height="9.0" rx="1.5" fill="#EEF2F6"/>
<rect x="75.0" y="112.0" width="9.0" height="9.0" rx="1.5" fill="#EEF2F6"/>
<rect x="75.0" y="123.0" width="9.0" height="9.0" rx="1.5" fill="#C7D2FE"/>
<rect x="75.0" y="134.0" width="9.0" height="9.0" rx="1.5" fill="#EEF2F6"/>
<rect x="75.0" y="145.0" width="9.0" height="9.0" rx="1.5" fill="#EEF2F6"/>
<rect x="75.0" y="156.0" width="9.0" height="9.0" rx="1.5" fill="#EEF2F6"/>
<rect x="75.0" y="167.0" width="9.0" height="9.0" rx="1.5" fill="#EEF2F6"/>
<rect x="75.0" y="178.0" width="9.0" height="9.0" rx="1.5" fill="#EEF2F6"/>
<rect x="86.0" y="112.0" width="9.0" height="9.0" rx="1.5" fill="#C7D2FE"/>
<rect x="86.0" y="123.0" width="9.0" height="9.0" rx="1.5" fill="#A5B4FC"/>
<rect x="86.0" y="134.0" width="9.0" height="9.0" rx="1.5" fill="#EEF2F6"/>
<rect x="86.0" y="145.0" width="9.0" height="9.0" rx="1.5" fill="#EEF2F6"/>
<rect x="86.0" y="156.0" width="9.0" height="9.0" rx="1.5" fill="#EEF2F6"/>
<rect x="86.0" y="167.0" width="9.0" height="9.0" rx="1.5" fill="#EEF2F6"/>
<rect x="86.0" y="178.0" width="9.0" height="9.0" rx="1.5" fill="#EEF2F6"/>
<rect x="97.0" y="112.0" width="9.0" height="9.0" rx="1.5" fill="#EEF2F6"/>
<rect x="97.0" y="123.0" width="9.0" height="9.0" rx="1.5" fill="#EEF2F6"/>
<rect x="97.0" y="134.0" width="9.0" height="9.0" rx="1.5" fill="#EEF2F6"/>
<rect x="97.0" y="145.0" width="9.0" height="9.0" rx="1.5" fill="#EEF2F6"/>
<rect x="97.0" y="156.0" width="9.0" height="9.0" rx="1.5" fill="#EEF2F6"/>
<rect x="97.0" y="167.0" width="9.0" height="9.0" rx="1.5" fill="#EEF2F6"/>
<rect x="97.0" y="178.0" width="9.0" height="9.0" rx="1.5" fill="#EEF2F6"/>
<rect x="108.0" y="112.0" width="9.0" height="9.0" rx="1.5" fill="#EEF2F6"/>
<rect x="108.0" y="123.0" width="9.0" height="9.0" rx="1.5" fill="#EEF2F6"/>
<rect x="108.0" y="134.0" width="9.0" height="9.0" rx="1.5" fill="#EEF2F6"/>
<rect x="108.0" y="145.0" width="9.0" height="9.0" rx="1.5" fill="#EEF2F6"/>
<rect x="108.0" y="156.0" width="9.0" height="9.0" rx="1.5" fill="#EEF2F6"/>
<rect x="108.0" y="167.0" width="9.0" height="9.0" rx="1.5" fill="#EEF2F6"/>
<rect x="108.0" y="178.0" width="9.0" height="9.0" rx="1.5" fill="#EEF2F6"/>
<rect x="119.0" y="112.0" width="9.0" height="9.0" rx="1.5" fill="#EEF2F6"/>
<rect x="119.0" y="123.0" width="9.0" height="9.0" rx="1.5" fill="#EEF2F6"/>
<rect x="119.0" y="134.0" width="9.0" height="9.0" rx="1.5" fill="#EEF2F6"/>
<rect x="119.0" y="145.0" width="9.0" height="9.0" rx="1.5" fill="#EEF2F6"/>
<rect x="119.0" y="156.0" width="9.0" height="9.0" rx="1.5" fill="#EEF2F6"/>
<rect x="119.0" y="167.0" width="9.0" height="9.0" rx="1.5" fill="#EEF2F6"/>
<rect x="119.0" y="178.0" width="9.0" height="9.0" rx="1.5" fill="#EEF2F6"/>
<rect x="130.0" y="112.0" width="9.0" height="9.0" rx="1.5" fill="#EEF2F6"/>
<rect x="130.0" y="123.0" width="9.0" height="9.0" rx="1.5" fill="#EEF2F6"/>
<rect x="130.0" y="134.0" width="9.0" height="9.0" rx="1.5" fill="#EEF2F6"/>
<rect x="130.0" y="145.0" width="9.0" height="9.0" rx="1.5" fill="#A5B4FC"/>
<rect x="130.0" y="156.0" width="9.0" height="9.0" rx="1.5" fill="#A5B4FC"/>
<rect x="130.0" y="167.0" width="9.0" height="9.0" rx="1.5" fill="#EEF2F6"/>
<rect x="130.0" y="178.0" width="9.0" height="9.0" rx="1.5" fill="#A5B4FC"/>
<rect x="141.0" y="112.0" width="9.0" height="9.0" rx="1.5" fill="#C7D2FE"/>
<rect x="141.0" y="123.0" width="9.0" height="9.0" rx="1.5" fill="#EEF2F6"/>
<rect x="141.0" y="134.0" width="9.0" height="9.0" rx="1.5" fill="#C7D2FE"/>
<rect x="141.0" y="145.0" width="9.0" height="9.0" rx="1.5" fill="#A5B4FC"/>
<rect x="141.0" y="156.0" width="9.0" height="9.0" rx="1.5" fill="#A5B4FC"/>
<rect x="141.0" y="167.0" width="9.0" height="9.0" rx="1.5" fill="#EEF2F6"/>
<rect x="141.0" y="178.0" width="9.0" height="9.0" rx="1.5" fill="#EEF2F6"/>
<rect x="152.0" y="112.0" width="9.0" height="9.0" rx="1.5" fill="#818CF8"/>
<rect x="152.0" y="123.0" width="9.0" height="9.0" rx="1.5" fill="#A5B4FC"/>
<rect x="152.0" y="134.0" width="9.0" height="9.0" rx="1.5" fill="#EEF2F6"/>
<rect x="152.0" y="145.0" width="9.0" height="9.0" rx="1.5" fill="#EEF2F6"/>
<rect x="152.0" y="156.0" width="9.0" height="9.0" rx="1.5" fill="#C7D2FE"/>
<rect x="152.0" y="167.0" width="9.0" height="9.0" rx="1.5" fill="#E0E7FF"/>
<rect x="152.0" y="178.0" width="9.0" height="9.0" rx="1.5" fill="#EEF2F6"/>
<rect x="163.0" y="112.0" width="9.0" height="9.0" rx="1.5" fill="#EEF2F6"/>
<rect x="163.0" y="123.0" width="9.0" height="9.0" rx="1.5" fill="#EEF2F6"/>
<rect x="163.0" y="134.0" width="9.0" height="9.0" rx="1.5" fill="#EEF2F6"/>
<rect x="163.0" y="145.0" width="9.0" height="9.0" rx="1.5" fill="#EEF2F6"/>
<rect x="163.0" y="156.0" width="9.0" height="9.0" rx="1.5" fill="#EEF2F6"/>
<rect x="163.0" y="167.0" width="9.0" height="9.0" rx="1.5" fill="#EEF2F6"/>
<rect x="163.0" y="178.0" width="9.0" height="9.0" rx="1.5" fill="#EEF2F6"/>
<rect x="174.0" y="112.0" width="9.0" height="9.0" rx="1.5" fill="#EEF2F6"/>
<rect x="174.0" y="123.0" width="9.0" height="9.0" rx="1.5" fill="#E0E7FF"/>
<rect x="174.0" y="134.0" width="9.0" height="9.0" rx="1.5" fill="#EEF2F6"/>
<rect x="174.0" y="145.0" width="9.0" height="9.0" rx="1.5" fill="#EEF2F6"/>
<rect x="174.0" y="156.0" width="9.0" height="9.0" rx="1.5" fill="#EEF2F6"/>
<rect x="174.0" y="167.0" width="9.0" height="9.0" rx="1.5" fill="#EEF2F6"/>
<rect x="174.0" y="178.0" width="9.0" height="9.0" rx="1.5" fill="#EEF2F6"/>
<rect x="185.0" y="112.0" width="9.0" height="9.0" rx="1.5" fill="#E0E7FF"/>
<rect x="185.0" y="123.0" width="9.0" height="9.0" rx="1.5" fill="#EEF2F6"/>
<rect x="185.0" y="134.0" width="9.0" height="9.0" rx="1.5" fill="#EEF2F6"/>
<rect x="185.0" y="145.0" width="9.0" height="9.0" rx="1.5" fill="#EEF2F6"/>
<rect x="185.0" y="156.0" width="9.0" height="9.0" rx="1.5" fill="#EEF2F6"/>
<rect x="185.0" y="167.0" width="9.0" height="9.0" rx="1.5" fill="#EEF2F6"/>
<rect x="185.0" y="178.0" width="9.0" height="9.0" rx="1.5" fill="#EEF2F6"/>
<rect x="196.0" y="112.0" width="9.0" height="9.0" rx="1.5" fill="#EEF2F6"/>
<rect x="196.0" y="123.0" width="9.0" height="9.0" rx="1.5" fill="#EEF2F6"/>
<rect x="196.0" y="134.0" width="9.0" height="9.0" rx="1.5" fill="#EEF2F6"/>
<rect x="196.0" y="145.0" width="9.0" height="9.0" rx="1.5" fill="#EEF2F6"/>
<rect x="196.0" y="156.0" width="9.0" height="9.0" rx="1.5" fill="#EEF2F6"/>
<rect x="196.0" y="167.0" width="9.0" height="9.0" rx="1.5" fill="#A5B4FC"/>
<rect x="196.0" y="178.0" width="9.0" height="9.0" rx="1.5" fill="#818CF8"/>
<rect x="207.0" y="112.0" width="9.0" height="9.0" rx="1.5" fill="#A5B4FC"/>
<rect x="207.0" y="123.0" width="9.0" height="9.0" rx="1.5" fill="#A5B4FC"/>
<rect x="207.0" y="134.0" width="9.0" height="9.0" rx="1.5" fill="#C7D2FE"/>
<rect x="207.0" y="145.0" width="9.0" height="9.0" rx="1.5" fill="#EEF2F6"/>
<rect x="207.0" y="156.0" width="9.0" height="9.0" rx="1.5" fill="#EEF2F6"/>
<rect x="207.0" y="167.0" width="9.0" height="9.0" rx="1.5" fill="#EEF2F6"/>
<rect x="207.0" y="178.0" width="9.0" height="9.0" rx="1.5" fill="#EEF2F6"/>
<rect x="218.0" y="112.0" width="9.0" height="9.0" rx="1.5" fill="#EEF2F6"/>
<rect x="218.0" y="123.0" width="9.0" height="9.0" rx="1.5" fill="#EEF2F6"/>
<rect x="218.0" y="134.0" width="9.0" height="9.0" rx="1.5" fill="#EEF2F6"/>
<rect x="218.0" y="145.0" width="9.0" height="9.0" rx="1.5" fill="#EEF2F6"/>
<rect x="218.0" y="156.0" width="9.0" height="9.0" rx="1.5" fill="#EEF2F6"/>
<rect x="218.0" y="167.0" width="9.0" height="9.0" rx="1.5" fill="#EEF2F6"/>
<rect x="218.0" y="178.0" width="9.0" height="9.0" rx="1.5" fill="#EEF2F6"/>
<rect x="229.0" y="112.0" width="9.0" height="9.0" rx="1.5" fill="#EEF2F6"/>
<rect x="229.0" y="123.0" width="9.0" height="9.0" rx="1.5" fill="#C7D2FE"/>
<rect x="229.0" y="134.0" width="9.0" height="9.0" rx="1.5" fill="#C7D2FE"/>
<rect x="229.0" y="145.0" width="9.0" height="9.0" rx="1.5" fill="#E0E7FF"/>
<rect x="229.0" y="156.0" width="9.0" height="9.0" rx="1.5" fill="#EEF2F6"/>
<rect x="229.0" y="167.0" width="9.0" height="9.0" rx="1.5" fill="#EEF2F6"/>
<rect x="229.0" y="178.0" width="9.0" height="9.0" rx="1.5" fill="#EEF2F6"/>
<rect x="240.0" y="112.0" width="9.0" height="9.0" rx="1.5" fill="#EEF2F6"/>
<rect x="240.0" y="123.0" width="9.0" height="9.0" rx="1.5" fill="#EEF2F6"/>
<rect x="240.0" y="134.0" width="9.0" height="9.0" rx="1.5" fill="#E0E7FF"/>
<rect x="240.0" y="145.0" width="9.0" height="9.0" rx="1.5" fill="#EEF2F6"/>
<rect x="240.0" y="156.0" width="9.0" height="9.0" rx="1.5" fill="#EEF2F6"/>
<rect x="240.0" y="167.0" width="9.0" height="9.0" rx="1.5" fill="#EEF2F6"/>
<rect x="240.0" y="178.0" width="9.0" height="9.0" rx="1.5" fill="#EEF2F6"/>
<rect x="251.0" y="112.0" width="9.0" height="9.0" rx="1.5" fill="#E0E7FF"/>
<rect x="251.0" y="123.0" width="9.0" height="9.0" rx="1.5" fill="#818CF8"/>
<rect x="251.0" y="134.0" width="9.0" height="9.0" rx="1.5" fill="#A5B4FC"/>
<rect x="251.0" y="145.0" width="9.0" height="9.0" rx="1.5" fill="#818CF8"/>
<rect x="251.0" y="156.0" width="9.0" height="9.0" rx="1.5" fill="#818CF8"/>
<rect x="251.0" y="167.0" width="9.0" height="9.0" rx="1.5" fill="#E0E7FF"/>
<rect x="251.0" y="178.0" width="9.0" height="9.0" rx="1.5" fill="#E0E7FF"/>
<rect x="262.0" y="112.0" width="9.0" height="9.0" rx="1.5" fill="#EEF2F6"/>
<rect x="262.0" y="123.0" width="9.0" height="9.0" rx="1.5" fill="#EEF2F6"/>
<rect x="262.0" y="134.0" width="9.0" height="9.0" rx="1.5" fill="#EEF2F6"/>
<rect x="262.0" y="145.0" width="9.0" height="9.0" rx="1.5" fill="#EEF2F6"/>
<rect x="262.0" y="156.0" width="9.0" height="9.0" rx="1.5" fill="#EEF2F6"/>
<rect x="262.0" y="167.0" width="9.0" height="9.0" rx="1.5" fill="#818CF8"/>
<rect x="262.0" y="178.0" width="9.0" height="9.0" rx="1.5" fill="#C7D2FE"/>
<rect x="273.0" y="112.0" width="9.0" height="9.0" rx="1.5" fill="#EEF2F6"/>
<rect x="273.0" y="123.0" width="9.0" height="9.0" rx="1.5" fill="#EEF2F6"/>
<rect x="273.0" y="134.0" width="9.0" height="9.0" rx="1.5" fill="#EEF2F6"/>
<rect x="273.0" y="145.0" width="9.0" height="9.0" rx="1.5" fill="#EEF2F6"/>
<rect x="273.0" y="156.0" width="9.0" height="9.0" rx="1.5" fill="#EEF2F6"/>
<rect x="273.0" y="167.0" width="9.0" height="9.0" rx="1.5" fill="#EEF2F6"/>
<rect x="273.0" y="178.0" width="9.0" height="9.0" rx="1.5" fill="#EEF2F6"/>
<rect x="284.0" y="112.0" width="9.0" height="9.0" rx="1.5" fill="#E0E7FF"/>
<rect x="284.0" y="123.0" width="9.0" height="9.0" rx="1.5" fill="#EEF2F6"/>
<rect x="284.0" y="134.0" width="9.0" height="9.0" rx="1.5" fill="#EEF2F6"/>
<rect x="284.0" y="145.0" width="9.0" height="9.0" rx="1.5" fill="#EEF2F6"/>
<rect x="284.0" y="156.0" width="9.0" height="9.0" rx="1.5" fill="#A5B4FC"/>
<rect x="284.0" y="167.0" width="9.0" height="9.0" rx="1.5" fill="#A5B4FC"/>
<rect x="284.0" y="178.0" width="9.0" height="9.0" rx="1.5" fill="#A5B4FC"/>
<rect x="295.0" y="112.0" width="9.0" height="9.0" rx="1.5" fill="#818CF8"/>
<rect x="295.0" y="123.0" width="9.0" height="9.0" rx="1.5" fill="#A5B4FC"/>
<rect x="295.0" y="134.0" width="9.0" height="9.0" rx="1.5" fill="#C7D2FE"/>
<rect x="295.0" y="145.0" width="9.0" height="9.0" rx="1.5" fill="#E0E7FF"/>
<rect x="295.0" y="156.0" width="9.0" height="9.0" rx="1.5" fill="#E0E7FF"/>
<rect x="295.0" y="167.0" width="9.0" height="9.0" rx="1.5" fill="#A5B4FC"/>
<rect x="295.0" y="178.0" width="9.0" height="9.0" rx="1.5" fill="#818CF8"/>
<rect x="306.0" y="112.0" width="9.0" height="9.0" rx="1.5" fill="#A5B4FC"/>
<rect x="306.0" y="123.0" width="9.0" height="9.0" rx="1.5" fill="#A5B4FC"/>
<rect x="306.0" y="134.0" width="9.0" height="9.0" rx="1.5" fill="#EEF2F6"/>
<rect x="306.0" y="145.0" width="9.0" height="9.0" rx="1.5" fill="#E0E7FF"/>
<rect x="306.0" y="156.0" width="9.0" height="9.0" rx="1.5" fill="#E0E7FF"/>
<rect x="306.0" y="167.0" width="9.0" height="9.0" rx="1.5" fill="#818CF8"/>
<rect x="306.0" y="178.0" width="9.0" height="9.0" rx="1.5" fill="#A5B4FC"/>
<rect x="317.0" y="112.0" width="9.0" height="9.0" rx="1.5" fill="#818CF8"/>
<rect x="317.0" y="123.0" width="9.0" height="9.0" rx="1.5" fill="#C7D2FE"/>
<rect x="317.0" y="134.0" width="9.0" height="9.0" rx="1.5" fill="#C7D2FE"/>
<rect x="317.0" y="145.0" width="9.0" height="9.0" rx="1.5" fill="#818CF8"/>
<rect x="317.0" y="156.0" width="9.0" height="9.0" rx="1.5" fill="#E0E7FF"/>
<rect x="317.0" y="167.0" width="9.0" height="9.0" rx="1.5" fill="#A5B4FC"/>
<rect x="317.0" y="178.0" width="9.0" height="9.0" rx="1.5" fill="#818CF8"/>
<rect x="328.0" y="112.0" width="9.0" height="9.0" rx="1.5" fill="#A5B4FC"/>
<rect x="328.0" y="123.0" width="9.0" height="9.0" rx="1.5" fill="#818CF8"/>
<rect x="328.0" y="134.0" width="9.0" height="9.0" rx="1.5" fill="#EEF2F6"/>
<rect x="328.0" y="145.0" width="9.0" height="9.0" rx="1.5" fill="#818CF8"/>
<rect x="328.0" y="156.0" width="9.0" height="9.0" rx="1.5" fill="#E0E7FF"/>
<rect x="328.0" y="167.0" width="9.0" height="9.0" rx="1.5" fill="#A5B4FC"/>
<rect x="328.0" y="178.0" width="9.0" height="9.0" rx="1.5" fill="#818CF8"/>
<rect x="339.0" y="112.0" width="9.0" height="9.0" rx="1.5" fill="#E0E7FF"/>
<rect x="339.0" y="123.0" width="9.0" height="9.0" rx="1.5" fill="#EEF2F6"/>
<rect x="339.0" y="134.0" width="9.0" height="9.0" rx="1.5" fill="#EEF2F6"/>
<rect x="339.0" y="145.0" width="9.0" height="9.0" rx="1.5" fill="#EEF2F6"/>
<rect x="339.0" y="156.0" width="9.0" height="9.0" rx="1.5" fill="#EEF2F6"/>
<rect x="339.0" y="167.0" width="9.0" height="9.0" rx="1.5" fill="#EEF2F6"/>
<rect x="339.0" y="178.0" width="9.0" height="9.0" rx="1.5" fill="#EEF2F6"/>
<rect x="350.0" y="112.0" width="9.0" height="9.0" rx="1.5" fill="#C7D2FE"/>
<rect x="350.0" y="123.0" width="9.0" height="9.0" rx="1.5" fill="#E0E7FF"/>
<rect x="350.0" y="134.0" width="9.0" height="9.0" rx="1.5" fill="#EEF2F6"/>
<rect x="350.0" y="145.0" width="9.0" height="9.0" rx="1.5" fill="#C7D2FE"/>
<rect x="350.0" y="156.0" width="9.0" height="9.0" rx="1.5" fill="#818CF8"/>
<rect x="350.0" y="167.0" width="9.0" height="9.0" rx="1.5" fill="#E0E7FF"/>
<rect x="350.0" y="178.0" width="9.0" height="9.0" rx="1.5" fill="#C7D2FE"/>
<rect x="361.0" y="112.0" width="9.0" height="9.0" rx="1.5" fill="#A5B4FC"/>
<rect x="361.0" y="123.0" width="9.0" height="9.0" rx="1.5" fill="#E0E7FF"/>
<rect x="361.0" y="134.0" width="9.0" height="9.0" rx="1.5" fill="#E0E7FF"/>
<rect x="361.0" y="145.0" width="9.0" height="9.0" rx="1.5" fill="#818CF8"/>
<rect x="361.0" y="156.0" width="9.0" height="9.0" rx="1.5" fill="#C7D2FE"/>
<rect x="361.0" y="167.0" width="9.0" height="9.0" rx="1.5" fill="#EEF2F6"/>
<rect x="361.0" y="178.0" width="9.0" height="9.0" rx="1.5" fill="#C7D2FE"/>
<rect x="372.0" y="112.0" width="9.0" height="9.0" rx="1.5" fill="#E0E7FF"/>
<rect x="372.0" y="123.0" width="9.0" height="9.0" rx="1.5" fill="#E0E7FF"/>
<rect x="372.0" y="134.0" width="9.0" height="9.0" rx="1.5" fill="#818CF8"/>
<rect x="372.0" y="145.0" width="9.0" height="9.0" rx="1.5" fill="#818CF8"/>
<rect x="372.0" y="156.0" width="9.0" height="9.0" rx="1.5" fill="#EEF2F6"/>
<rect x="372.0" y="167.0" width="9.0" height="9.0" rx="1.5" fill="#EEF2F6"/>
<rect x="372.0" y="178.0" width="9.0" height="9.0" rx="1.5" fill="#EEF2F6"/>
<rect x="383.0" y="112.0" width="9.0" height="9.0" rx="1.5" fill="#EEF2F6"/>
<rect x="383.0" y="123.0" width="9.0" height="9.0" rx="1.5" fill="#EEF2F6"/>
<rect x="383.0" y="134.0" width="9.0" height="9.0" rx="1.5" fill="#EEF2F6"/>
<rect x="383.0" y="145.0" width="9.0" height="9.0" rx="1.5" fill="#A5B4FC"/>
<rect x="383.0" y="156.0" width="9.0" height="9.0" rx="1.5" fill="#EEF2F6"/>
<rect x="383.0" y="167.0" width="9.0" height="9.0" rx="1.5" fill="#EEF2F6"/>
<rect x="383.0" y="178.0" width="9.0" height="9.0" rx="1.5" fill="#EEF2F6"/>
<rect x="394.0" y="112.0" width="9.0" height="9.0" rx="1.5" fill="#EEF2F6"/>
<rect x="394.0" y="123.0" width="9.0" height="9.0" rx="1.5" fill="#EEF2F6"/>
<rect x="394.0" y="134.0" width="9.0" height="9.0" rx="1.5" fill="#EEF2F6"/>
<rect x="394.0" y="145.0" width="9.0" height="9.0" rx="1.5" fill="#EEF2F6"/>
<rect x="394.0" y="156.0" width="9.0" height="9.0" rx="1.5" fill="#EEF2F6"/>
<rect x="394.0" y="167.0" width="9.0" height="9.0" rx="1.5" fill="#EEF2F6"/>
<rect x="394.0" y="178.0" width="9.0" height="9.0" rx="1.5" fill="#EEF2F6"/>
<rect x="405.0" y="112.0" width="9.0" height="9.0" rx="1.5" fill="#EEF2F6"/>
<rect x="405.0" y="123.0" width="9.0" height="9.0" rx="1.5" fill="#EEF2F6"/>
<rect x="405.0" y="134.0" width="9.0" height="9.0" rx="1.5" fill="#EEF2F6"/>
<rect x="405.0" y="145.0" width="9.0" height="9.0" rx="1.5" fill="#EEF2F6"/>
<rect x="405.0" y="156.0" width="9.0" height="9.0" rx="1.5" fill="#EEF2F6"/>
<rect x="405.0" y="167.0" width="9.0" height="9.0" rx="1.5" fill="#EEF2F6"/>
<rect x="405.0" y="178.0" width="9.0" height="9.0" rx="1.5" fill="#EEF2F6"/>
<rect x="416.0" y="112.0" width="9.0" height="9.0" rx="1.5" fill="#EEF2F6"/>
<rect x="416.0" y="123.0" width="9.0" height="9.0" rx="1.5" fill="#EEF2F6"/>
<rect x="416.0" y="134.0" width="9.0" height="9.0" rx="1.5" fill="#A5B4FC"/>
<rect x="416.0" y="145.0" width="9.0" height="9.0" rx="1.5" fill="#4F46E5"/>
<rect x="416.0" y="156.0" width="9.0" height="9.0" rx="1.5" fill="#818CF8"/>
<rect x="416.0" y="167.0" width="9.0" height="9.0" rx="1.5" fill="#818CF8"/>
<rect x="416.0" y="178.0" width="9.0" height="9.0" rx="1.5" fill="#EEF2F6"/>
<rect x="427.0" y="112.0" width="9.0" height="9.0" rx="1.5" fill="#EEF2F6"/>
<rect x="427.0" y="123.0" width="9.0" height="9.0" rx="1.5" fill="#C7D2FE"/>
<rect x="427.0" y="134.0" width="9.0" height="9.0" rx="1.5" fill="#E0E7FF"/>
<rect x="427.0" y="145.0" width="9.0" height="9.0" rx="1.5" fill="#E0E7FF"/>
<rect x="427.0" y="156.0" width="9.0" height="9.0" rx="1.5" fill="#EEF2F6"/>
<rect x="427.0" y="167.0" width="9.0" height="9.0" rx="1.5" fill="#EEF2F6"/>
<rect x="427.0" y="178.0" width="9.0" height="9.0" rx="1.5" fill="#EEF2F6"/>
<rect x="438.0" y="112.0" width="9.0" height="9.0" rx="1.5" fill="#EEF2F6"/>
<rect x="438.0" y="123.0" width="9.0" height="9.0" rx="1.5" fill="#818CF8"/>
<rect x="438.0" y="134.0" width="9.0" height="9.0" rx="1.5" fill="#818CF8"/>
<rect x="438.0" y="145.0" width="9.0" height="9.0" rx="1.5" fill="#EEF2F6"/>
<rect x="438.0" y="156.0" width="9.0" height="9.0" rx="1.5" fill="#EEF2F6"/>
<rect x="438.0" y="167.0" width="9.0" height="9.0" rx="1.5" fill="#EEF2F6"/>
<rect x="438.0" y="178.0" width="9.0" height="9.0" rx="1.5" fill="#EEF2F6"/>
<rect x="449.0" y="112.0" width="9.0" height="9.0" rx="1.5" fill="#EEF2F6"/>
<rect x="449.0" y="123.0" width="9.0" height="9.0" rx="1.5" fill="#EEF2F6"/>
<rect x="449.0" y="134.0" width="9.0" height="9.0" rx="1.5" fill="#C7D2FE"/>
<rect x="449.0" y="145.0" width="9.0" height="9.0" rx="1.5" fill="#EEF2F6"/>
<rect x="449.0" y="156.0" width="9.0" height="9.0" rx="1.5" fill="#EEF2F6"/>
<rect x="449.0" y="167.0" width="9.0" height="9.0" rx="1.5" fill="#EEF2F6"/>
<rect x="449.0" y="178.0" width="9.0" height="9.0" rx="1.5" fill="#EEF2F6"/>
<rect x="460.0" y="112.0" width="9.0" height="9.0" rx="1.5" fill="#EEF2F6"/>
<rect x="460.0" y="123.0" width="9.0" height="9.0" rx="1.5" fill="#EEF2F6"/>
<rect x="460.0" y="134.0" width="9.0" height="9.0" rx="1.5" fill="#EEF2F6"/>
<rect x="460.0" y="145.0" width="9.0" height="9.0" rx="1.5" fill="#EEF2F6"/>
<rect x="460.0" y="156.0" width="9.0" height="9.0" rx="1.5" fill="#EEF2F6"/>
<rect x="460.0" y="167.0" width="9.0" height="9.0" rx="1.5" fill="#EEF2F6"/>
<rect x="460.0" y="178.0" width="9.0" height="9.0" rx="1.5" fill="#EEF2F6"/>
<rect x="471.0" y="112.0" width="9.0" height="9.0" rx="1.5" fill="#EEF2F6"/>
<rect x="471.0" y="123.0" width="9.0" height="9.0" rx="1.5" fill="#EEF2F6"/>
<rect x="471.0" y="134.0" width="9.0" height="9.0" rx="1.5" fill="#EEF2F6"/>
<rect x="471.0" y="145.0" width="9.0" height="9.0" rx="1.5" fill="#EEF2F6"/>
<rect x="471.0" y="156.0" width="9.0" height="9.0" rx="1.5" fill="#818CF8"/>
<rect x="471.0" y="167.0" width="9.0" height="9.0" rx="1.5" fill="#C7D2FE"/>
<rect x="471.0" y="178.0" width="9.0" height="9.0" rx="1.5" fill="#818CF8"/>
<rect x="482.0" y="112.0" width="9.0" height="9.0" rx="1.5" fill="#C7D2FE"/>
<rect x="482.0" y="123.0" width="9.0" height="9.0" rx="1.5" fill="#818CF8"/>
<rect x="482.0" y="134.0" width="9.0" height="9.0" rx="1.5" fill="#A5B4FC"/>
<rect x="482.0" y="145.0" width="9.0" height="9.0" rx="1.5" fill="#C7D2FE"/>
<rect x="482.0" y="156.0" width="9.0" height="9.0" rx="1.5" fill="#C7D2FE"/>
<rect x="482.0" y="167.0" width="9.0" height="9.0" rx="1.5" fill="#C7D2FE"/>
<rect x="482.0" y="178.0" width="9.0" height="9.0" rx="1.5" fill="#C7D2FE"/>
<rect x="493.0" y="112.0" width="9.0" height="9.0" rx="1.5" fill="#EEF2F6"/>
<rect x="493.0" y="123.0" width="9.0" height="9.0" rx="1.5" fill="#EEF2F6"/>
<rect x="493.0" y="134.0" width="9.0" height="9.0" rx="1.5" fill="#EEF2F6"/>
<rect x="493.0" y="145.0" width="9.0" height="9.0" rx="1.5" fill="#EEF2F6"/>
<rect x="493.0" y="156.0" width="9.0" height="9.0" rx="1.5" fill="#EEF2F6"/>
<rect x="493.0" y="167.0" width="9.0" height="9.0" rx="1.5" fill="#EEF2F6"/>
<rect x="493.0" y="178.0" width="9.0" height="9.0" rx="1.5" fill="#E0E7FF"/>
<rect x="504.0" y="112.0" width="9.0" height="9.0" rx="1.5" fill="#EEF2F6"/>
<rect x="504.0" y="123.0" width="9.0" height="9.0" rx="1.5" fill="#EEF2F6"/>
<rect x="504.0" y="134.0" width="9.0" height="9.0" rx="1.5" fill="#EEF2F6"/>
<rect x="504.0" y="145.0" width="9.0" height="9.0" rx="1.5" fill="#EEF2F6"/>
<rect x="504.0" y="156.0" width="9.0" height="9.0" rx="1.5" fill="#EEF2F6"/>
<rect x="504.0" y="167.0" width="9.0" height="9.0" rx="1.5" fill="#EEF2F6"/>
<rect x="504.0" y="178.0" width="9.0" height="9.0" rx="1.5" fill="#C7D2FE"/>
<rect x="515.0" y="112.0" width="9.0" height="9.0" rx="1.5" fill="#A5B4FC"/>
<rect x="515.0" y="123.0" width="9.0" height="9.0" rx="1.5" fill="#EEF2F6"/>
<rect x="515.0" y="134.0" width="9.0" height="9.0" rx="1.5" fill="#E0E7FF"/>
<rect x="515.0" y="145.0" width="9.0" height="9.0" rx="1.5" fill="#E0E7FF"/>
<rect x="515.0" y="156.0" width="9.0" height="9.0" rx="1.5" fill="#E0E7FF"/>
<rect x="515.0" y="167.0" width="9.0" height="9.0" rx="1.5" fill="#4F46E5"/>
<rect x="515.0" y="178.0" width="9.0" height="9.0" rx="1.5" fill="#4F46E5"/>
<rect x="526.0" y="112.0" width="9.0" height="9.0" rx="1.5" fill="#C7D2FE"/>
<rect x="526.0" y="123.0" width="9.0" height="9.0" rx="1.5" fill="#E0E7FF"/>
<rect x="526.0" y="134.0" width="9.0" height="9.0" rx="1.5" fill="#EEF2F6"/>
<rect x="526.0" y="145.0" width="9.0" height="9.0" rx="1.5" fill="#E0E7FF"/>
<rect x="526.0" y="156.0" width="9.0" height="9.0" rx="1.5" fill="#EEF2F6"/>
<rect x="526.0" y="167.0" width="9.0" height="9.0" rx="1.5" fill="#EEF2F6"/>
<rect x="526.0" y="178.0" width="9.0" height="9.0" rx="1.5" fill="#818CF8"/>
<rect x="537.0" y="112.0" width="9.0" height="9.0" rx="1.5" fill="#818CF8"/>
<rect x="537.0" y="123.0" width="9.0" height="9.0" rx="1.5" fill="#4F46E5"/>
<rect x="537.0" y="134.0" width="9.0" height="9.0" rx="1.5" fill="#818CF8"/>
<rect x="537.0" y="145.0" width="9.0" height="9.0" rx="1.5" fill="#A5B4FC"/>
<rect x="537.0" y="156.0" width="9.0" height="9.0" rx="1.5" fill="#4F46E5"/>
<rect x="537.0" y="167.0" width="9.0" height="9.0" rx="1.5" fill="#4F46E5"/>
<rect x="537.0" y="178.0" width="9.0" height="9.0" rx="1.5" fill="#4F46E5"/>
<rect x="548.0" y="112.0" width="9.0" height="9.0" rx="1.5" fill="#4F46E5"/>
<rect x="548.0" y="123.0" width="9.0" height="9.0" rx="1.5" fill="#4F46E5"/>
<rect x="548.0" y="134.0" width="9.0" height="9.0" rx="1.5" fill="#4F46E5"/>
<rect x="548.0" y="145.0" width="9.0" height="9.0" rx="1.5" fill="#4F46E5"/>
<rect x="548.0" y="156.0" width="9.0" height="9.0" rx="1.5" fill="#EEF2F6"/>
<rect x="548.0" y="167.0" width="9.0" height="9.0" rx="1.5" fill="#818CF8"/>
<rect x="548.0" y="178.0" width="9.0" height="9.0" rx="1.5" fill="#4F46E5"/>
<rect x="559.0" y="112.0" width="9.0" height="9.0" rx="1.5" fill="#4F46E5"/>
<rect x="559.0" y="123.0" width="9.0" height="9.0" rx="1.5" fill="#4F46E5"/>
<rect x="559.0" y="134.0" width="9.0" height="9.0" rx="1.5" fill="#4F46E5" stroke="#06B6D4" stroke-width="1"/>
<rect x="559.0" y="145.0" width="9.0" height="9.0" rx="1.5" fill="#4F46E5"/>
<rect x="559.0" y="156.0" width="9.0" height="9.0" rx="1.5" fill="#818CF8"/>
<rect x="559.0" y="167.0" width="9.0" height="9.0" rx="1.5" fill="#4F46E5"/>
<rect x="559.0" y="178.0" width="9.0" height="9.0" rx="1.5" fill="#4F46E5"/>
<rect x="570.0" y="112.0" width="9.0" height="9.0" rx="1.5" fill="#4F46E5"/>
<rect x="570.0" y="123.0" width="9.0" height="9.0" rx="1.5" fill="#4F46E5"/>
<rect x="570.0" y="134.0" width="9.0" height="9.0" rx="1.5" fill="#4F46E5"/>
<rect x="570.0" y="145.0" width="9.0" height="9.0" rx="1.5" fill="#4F46E5"/>
<rect x="570.0" y="156.0" width="9.0" height="9.0" rx="1.5" fill="#4F46E5"/>
<rect x="570.0" y="167.0" width="9.0" height="9.0" rx="1.5" fill="#818CF8"/>
<rect x="570.0" y="178.0" width="9.0" height="9.0" rx="1.5" fill="#4F46E5"/>
<rect x="581.0" y="112.0" width="9.0" height="9.0" rx="1.5" fill="#4F46E5"/>
<rect x="581.0" y="123.0" width="9.0" height="9.0" rx="1.5" fill="#4F46E5"/>
<rect x="581.0" y="134.0" width="9.0" height="9.0" rx="1.5" fill="#4F46E5"/>
<rect x="581.0" y="145.0" width="9.0" height="9.0" rx="1.5" fill="#4F46E5"/>
<rect x="581.0" y="156.0" width="9.0" height="9.0" rx="1.5" fill="#4F46E5"/>
<rect x="581.0" y="167.0" width="9.0" height="9.0" rx="1.5" fill="#4F46E5"/>
<rect x="581.0" y="178.0" width="9.0" height="9.0" rx="1.5" fill="#4F46E5"/>
<rect x="592.0" y="112.0" width="9.0" height="9.0" rx="1.5" fill="#4F46E5"/>
<rect x="592.0" y="123.0" width="9.0" height="9.0" rx="1.5" fill="#FFFFFF"/>
<rect x="592.0" y="134.0" width="9.0" height="9.0" rx="1.5" fill="#FFFFFF"/>
<rect x="592.0" y="145.0" width="9.0" height="9.0" rx="1.5" fill="#FFFFFF"/>
<rect x="592.0" y="156.0" width="9.0" height="9.0" rx="1.5" fill="#FFFFFF"/>
<rect x="592.0" y="167.0" width="9.0" height="9.0" rx="1.5" fill="#FFFFFF"/>
<rect x="592.0" y="178.0" width="9.0" height="9.0" rx="1.5" fill="#FFFFFF"/>
<text x="20.0" y="232.0" fill="#64748B" font-family="-apple-system, BlinkMacSystemFont, 'Segoe UI', Helvetica, Arial, sans-serif" font-size="11.0" font-weight="400" text-anchor="start">Local public snapshot</text>
<text x="780.0" y="232.0" fill="#4F46E5" font-family="-apple-system, BlinkMacSystemFont, 'Segoe UI', Helvetica, Arial, sans-serif" font-size="11.0" font-weight="600" text-anchor="end">Explore profile →</text>
</svg>
